<?xml version="1.0" encoding="UTF-8" standalone="no"?>
<!DOCTYPE svg PUBLIC "-//W3C//DTD SVG 1.1//EN"
 "http://www.w3.org/Graphics/SVG/1.1/DTD/svg11.dtd">
<!-- Generated by graphviz version 5.0.0 (20220707.1540)
 -->
<!-- Title: dependencies Pages: 1 -->
<svg width="1832pt" height="247pt"
 viewBox="0.00 0.00 1832.00 246.80" xmlns="http://www.w3.org/2000/svg" xmlns:xlink="http://www.w3.org/1999/xlink">
<g id="graph0" class="graph" transform="scale(1 1) rotate(0) translate(4 242.8)">
<title>dependencies</title>
<polygon fill="white" stroke="transparent" points="-4,4 -4,-242.8 1828,-242.8 1828,4 -4,4"/>
<text text-anchor="middle" x="912" y="-8.2" font-family="sans-serif" font-size="14.00">dependencies</text>
<g id="clust1" class="cluster">
<title>cluster_AppModule</title>
<polygon fill="none" stroke="black" stroke-dasharray="1,5" points="8,-32.8 8,-230.8 1816,-230.8 1816,-32.8 8,-32.8"/>
</g>
<g id="clust16" class="cluster">
<title>cluster_AppModule_providers</title>
<polygon fill="none" stroke="black" points="1676,-40.8 1676,-92.8 1808,-92.8 1808,-40.8 1676,-40.8"/>
</g>
<g id="clust15" class="cluster">
<title>cluster_AppModule_bootstrap</title>
<polygon fill="none" stroke="black" points="891,-170.8 891,-222.8 1015,-222.8 1015,-170.8 891,-170.8"/>
</g>
<g id="clust2" class="cluster">
<title>cluster_AppModule_declarations</title>
<polygon fill="none" stroke="black" points="168,-40.8 168,-92.8 1668,-92.8 1668,-40.8 168,-40.8"/>
</g>
<g id="clust13" class="cluster">
<title>cluster_AppModule_imports</title>
<polygon fill="none" stroke="black" points="16,-40.8 16,-92.8 160,-92.8 160,-40.8 16,-40.8"/>
</g>
<!-- AppComponent -->
<g id="node1" class="node">
<title>AppComponent</title>
<polygon fill="#ffffb3" stroke="black" points="1659.94,-84.8 1554.06,-84.8 1554.06,-48.8 1659.94,-48.8 1659.94,-84.8"/>
<text text-anchor="middle" x="1607" y="-62.6" font-family="Times,serif" font-size="14.00">AppComponent</text>
</g>
<!-- AppModule -->
<g id="node11" class="node">
<title>AppModule</title>
<polygon fill="#8dd3c7" stroke="black" points="994.66,-149.8 991.66,-153.8 970.66,-153.8 967.66,-149.8 911.34,-149.8 911.34,-113.8 994.66,-113.8 994.66,-149.8"/>
<text text-anchor="middle" x="953" y="-127.6" font-family="Times,serif" font-size="14.00">AppModule</text>
</g>
<!-- AppComponent&#45;&gt;AppModule -->
<g id="edge1" class="edge">
<title>AppComponent&#45;&gt;AppModule</title>
<path fill="none" stroke="black" d="M1607,-85.08C1607,-106.12 1607,-137.8 1607,-137.8 1607,-137.8 1004.91,-137.8 1004.91,-137.8"/>
<polygon fill="black" stroke="black" points="1004.91,-134.3 994.91,-137.8 1004.91,-141.3 1004.91,-134.3"/>
</g>
<!-- FooterComponent -->
<g id="node2" class="node">
<title>FooterComponent</title>
<polygon fill="#ffffb3" stroke="black" points="1535.88,-84.8 1418.12,-84.8 1418.12,-48.8 1535.88,-48.8 1535.88,-84.8"/>
<text text-anchor="middle" x="1477" y="-62.6" font-family="Times,serif" font-size="14.00">FooterComponent</text>
</g>
<!-- FooterComponent&#45;&gt;AppModule -->
<g id="edge2" class="edge">
<title>FooterComponent&#45;&gt;AppModule</title>
<path fill="none" stroke="black" d="M1477,-84.91C1477,-104.14 1477,-131.8 1477,-131.8 1477,-131.8 1005,-131.8 1005,-131.8"/>
<polygon fill="black" stroke="black" points="1005,-128.3 995,-131.8 1005,-135.3 1005,-128.3"/>
</g>
<!-- InicioComponent -->
<g id="node3" class="node">
<title>InicioComponent</title>
<polygon fill="#ffffb3" stroke="black" points="1399.99,-84.8 1286.01,-84.8 1286.01,-48.8 1399.99,-48.8 1399.99,-84.8"/>
<text text-anchor="middle" x="1343" y="-62.6" font-family="Times,serif" font-size="14.00">InicioComponent</text>
</g>
<!-- InicioComponent&#45;&gt;AppModule -->
<g id="edge3" class="edge">
<title>InicioComponent&#45;&gt;AppModule</title>
<path fill="none" stroke="black" d="M1343,-84.82C1343,-102.17 1343,-125.8 1343,-125.8 1343,-125.8 1004.74,-125.8 1004.74,-125.8"/>
<polygon fill="black" stroke="black" points="1004.74,-122.3 994.74,-125.8 1004.74,-129.3 1004.74,-122.3"/>
</g>
<!-- LoginComponent -->
<g id="node4" class="node">
<title>LoginComponent</title>
<polygon fill="#ffffb3" stroke="black" points="1268.27,-84.8 1153.73,-84.8 1153.73,-48.8 1268.27,-48.8 1268.27,-84.8"/>
<text text-anchor="middle" x="1211" y="-62.6" font-family="Times,serif" font-size="14.00">LoginComponent</text>
</g>
<!-- LoginComponent&#45;&gt;AppModule -->
<g id="edge4" class="edge">
<title>LoginComponent&#45;&gt;AppModule</title>
<path fill="none" stroke="black" d="M1211,-85.04C1211,-100.37 1211,-119.8 1211,-119.8 1211,-119.8 1004.74,-119.8 1004.74,-119.8"/>
<polygon fill="black" stroke="black" points="1004.74,-116.3 994.74,-119.8 1004.74,-123.3 1004.74,-116.3"/>
</g>
<!-- MostrarRecetasComponent -->
<g id="node5" class="node">
<title>MostrarRecetasComponent</title>
<polygon fill="#ffffb3" stroke="black" points="1135.69,-84.8 966.31,-84.8 966.31,-48.8 1135.69,-48.8 1135.69,-84.8"/>
<text text-anchor="middle" x="1051" y="-62.6" font-family="Times,serif" font-size="14.00">MostrarRecetasComponent</text>
</g>
<!-- MostrarRecetasComponent&#45;&gt;AppModule -->
<g id="edge5" class="edge">
<title>MostrarRecetasComponent&#45;&gt;AppModule</title>
<path fill="none" stroke="black" d="M980.62,-84.91C980.62,-84.91 980.62,-103.79 980.62,-103.79"/>
<polygon fill="black" stroke="black" points="977.12,-103.79 980.62,-113.79 984.12,-103.79 977.12,-103.79"/>
</g>
<!-- MostrarUnaRecetaComponent -->
<g id="node6" class="node">
<title>MostrarUnaRecetaComponent</title>
<polygon fill="#ffffb3" stroke="black" points="948.56,-84.8 761.44,-84.8 761.44,-48.8 948.56,-48.8 948.56,-84.8"/>
<text text-anchor="middle" x="855" y="-62.6" font-family="Times,serif" font-size="14.00">MostrarUnaRecetaComponent</text>
</g>
<!-- MostrarUnaRecetaComponent&#45;&gt;AppModule -->
<g id="edge6" class="edge">
<title>MostrarUnaRecetaComponent&#45;&gt;AppModule</title>
<path fill="none" stroke="black" d="M929.85,-84.91C929.85,-84.91 929.85,-103.79 929.85,-103.79"/>
<polygon fill="black" stroke="black" points="926.35,-103.79 929.85,-113.79 933.35,-103.79 926.35,-103.79"/>
</g>
<!-- NavbarComponent -->
<g id="node7" class="node">
<title>NavbarComponent</title>
<polygon fill="#ffffb3" stroke="black" points="743.03,-84.8 620.97,-84.8 620.97,-48.8 743.03,-48.8 743.03,-84.8"/>
<text text-anchor="middle" x="682" y="-62.6" font-family="Times,serif" font-size="14.00">NavbarComponent</text>
</g>
<!-- NavbarComponent&#45;&gt;AppModule -->
<g id="edge7" class="edge">
<title>NavbarComponent&#45;&gt;AppModule</title>
<path fill="none" stroke="black" d="M682,-85.04C682,-100.37 682,-119.8 682,-119.8 682,-119.8 901.25,-119.8 901.25,-119.8"/>
<polygon fill="black" stroke="black" points="901.25,-123.3 911.25,-119.8 901.25,-116.3 901.25,-123.3"/>
</g>
<!-- PerfilComponent -->
<g id="node8" class="node">
<title>PerfilComponent</title>
<polygon fill="#ffffb3" stroke="black" points="603.44,-84.8 490.56,-84.8 490.56,-48.8 603.44,-48.8 603.44,-84.8"/>
<text text-anchor="middle" x="547" y="-62.6" font-family="Times,serif" font-size="14.00">PerfilComponent</text>
</g>
<!-- PerfilComponent&#45;&gt;AppModule -->
<g id="edge8" class="edge">
<title>PerfilComponent&#45;&gt;AppModule</title>
<path fill="none" stroke="black" d="M547,-84.82C547,-102.17 547,-125.8 547,-125.8 547,-125.8 901.08,-125.8 901.08,-125.8"/>
<polygon fill="black" stroke="black" points="901.08,-129.3 911.08,-125.8 901.08,-122.3 901.08,-129.3"/>
</g>
<!-- RegistroComponent -->
<g id="node9" class="node">
<title>RegistroComponent</title>
<polygon fill="#ffffb3" stroke="black" points="472.27,-84.8 343.73,-84.8 343.73,-48.8 472.27,-48.8 472.27,-84.8"/>
<text text-anchor="middle" x="408" y="-62.6" font-family="Times,serif" font-size="14.00">RegistroComponent</text>
</g>
<!-- RegistroComponent&#45;&gt;AppModule -->
<g id="edge9" class="edge">
<title>RegistroComponent&#45;&gt;AppModule</title>
<path fill="none" stroke="black" d="M408,-84.91C408,-104.14 408,-131.8 408,-131.8 408,-131.8 901.14,-131.8 901.14,-131.8"/>
<polygon fill="black" stroke="black" points="901.14,-135.3 911.14,-131.8 901.14,-128.3 901.14,-135.3"/>
</g>
<!-- SubirRecetaComponent -->
<g id="node10" class="node">
<title>SubirRecetaComponent</title>
<polygon fill="#ffffb3" stroke="black" points="325.75,-84.8 176.25,-84.8 176.25,-48.8 325.75,-48.8 325.75,-84.8"/>
<text text-anchor="middle" x="251" y="-62.6" font-family="Times,serif" font-size="14.00">SubirRecetaComponent</text>
</g>
<!-- SubirRecetaComponent&#45;&gt;AppModule -->
<g id="edge10" class="edge">
<title>SubirRecetaComponent&#45;&gt;AppModule</title>
<path fill="none" stroke="black" d="M251,-85.08C251,-106.12 251,-137.8 251,-137.8 251,-137.8 901.19,-137.8 901.19,-137.8"/>
<polygon fill="black" stroke="black" points="901.19,-141.3 911.19,-137.8 901.19,-134.3 901.19,-141.3"/>
</g>
<!-- AppComponent  -->
<g id="node13" class="node">
<title>AppComponent </title>
<polygon fill="#80b1d3" stroke="black" points="1007.44,-214.8 898.56,-214.8 898.56,-178.8 1007.44,-178.8 1007.44,-214.8"/>
<text text-anchor="middle" x="953" y="-192.6" font-family="Times,serif" font-size="14.00">AppComponent </text>
</g>
<!-- AppModule&#45;&gt;AppComponent  -->
<g id="edge12" class="edge">
<title>AppModule&#45;&gt;AppComponent </title>
<path fill="none" stroke="black" stroke-dasharray="1,5" d="M953,-149.91C953,-149.91 953,-168.79 953,-168.79"/>
<polygon fill="black" stroke="black" points="949.5,-168.79 953,-178.79 956.5,-168.79 949.5,-168.79"/>
</g>
<!-- AppRoutingModule -->
<g id="node12" class="node">
<title>AppRoutingModule</title>
<polygon fill="#8dd3c7" stroke="black" points="152.28,-84.8 149.28,-88.8 128.28,-88.8 125.28,-84.8 23.72,-84.8 23.72,-48.8 152.28,-48.8 152.28,-84.8"/>
<text text-anchor="middle" x="88" y="-62.6" font-family="Times,serif" font-size="14.00">AppRoutingModule</text>
</g>
<!-- AppRoutingModule&#45;&gt;AppModule -->
<g id="edge11" class="edge">
<title>AppRoutingModule&#45;&gt;AppModule</title>
<path fill="none" stroke="black" d="M88,-85.05C88,-107.82 88,-143.8 88,-143.8 88,-143.8 901.28,-143.8 901.28,-143.8"/>
<polygon fill="black" stroke="black" points="901.28,-147.3 911.28,-143.8 901.28,-140.3 901.28,-147.3"/>
</g>
<!-- DataService -->
<g id="node14" class="node">
<title>DataService</title>
<ellipse fill="#fdb462" stroke="black" cx="1742" cy="-66.8" rx="58.45" ry="18"/>
<text text-anchor="middle" x="1742" y="-62.6" font-family="Times,serif" font-size="14.00">DataService</text>
</g>
<!-- DataService&#45;&gt;AppModule -->
<g id="edge13" class="edge">
<title>DataService&#45;&gt;AppModule</title>
<path fill="none" stroke="black" d="M1742,-85.05C1742,-107.82 1742,-143.8 1742,-143.8 1742,-143.8 1004.86,-143.8 1004.86,-143.8"/>
<polygon fill="black" stroke="black" points="1004.86,-140.3 994.86,-143.8 1004.86,-147.3 1004.86,-140.3"/>
</g>
</g>
</svg>
