<?xml version="1.0" encoding="UTF-8" standalone="no"?>
<!DOCTYPE svg PUBLIC "-//W3C//DTD SVG 1.1//EN"
 "http://www.w3.org/Graphics/SVG/1.1/DTD/svg11.dtd">
<!-- Generated by graphviz version 5.0.0 (20220707.1540)
 -->
<!-- Title: dependencies Pages: 1 -->
<svg width="1850pt" height="247pt"
 viewBox="0.00 0.00 1850.00 246.80" xmlns="http://www.w3.org/2000/svg" xmlns:xlink="http://www.w3.org/1999/xlink">
<g id="graph0" class="graph" transform="scale(1 1) rotate(0) translate(4 242.8)">
<title>dependencies</title>
<polygon fill="white" stroke="transparent" points="-4,4 -4,-242.8 1846,-242.8 1846,4 -4,4"/>
<text text-anchor="middle" x="921" y="-8.2" font-family="sans-serif" font-size="14.00">dependencies</text>
<g id="clust1" class="cluster">
<title>cluster_AppModule</title>
<polygon fill="none" stroke="black" stroke-dasharray="1,5" points="8,-32.8 8,-230.8 1834,-230.8 1834,-32.8 8,-32.8"/>
</g>
<g id="clust15" class="cluster">
<title>cluster_AppModule_bootstrap</title>
<polygon fill="none" stroke="black" points="917,-170.8 917,-222.8 1041,-222.8 1041,-170.8 917,-170.8"/>
</g>
<g id="clust13" class="cluster">
<title>cluster_AppModule_imports</title>
<polygon fill="none" stroke="black" points="1682,-40.8 1682,-92.8 1826,-92.8 1826,-40.8 1682,-40.8"/>
</g>
<g id="clust16" class="cluster">
<title>cluster_AppModule_providers</title>
<polygon fill="none" stroke="black" points="1524,-40.8 1524,-92.8 1674,-92.8 1674,-40.8 1524,-40.8"/>
</g>
<g id="clust2" class="cluster">
<title>cluster_AppModule_declarations</title>
<polygon fill="none" stroke="black" points="16,-40.8 16,-92.8 1516,-92.8 1516,-40.8 16,-40.8"/>
</g>
<!-- AppComponent -->
<g id="node1" class="node">
<title>AppComponent</title>
<polygon fill="#ffffb3" stroke="black" points="1507.94,-84.8 1402.06,-84.8 1402.06,-48.8 1507.94,-48.8 1507.94,-84.8"/>
<text text-anchor="middle" x="1455" y="-62.6" font-family="Times,serif" font-size="14.00">AppComponent</text>
</g>
<!-- AppModule -->
<g id="node11" class="node">
<title>AppModule</title>
<polygon fill="#8dd3c7" stroke="black" points="1020.66,-149.8 1017.66,-153.8 996.66,-153.8 993.66,-149.8 937.34,-149.8 937.34,-113.8 1020.66,-113.8 1020.66,-149.8"/>
<text text-anchor="middle" x="979" y="-127.6" font-family="Times,serif" font-size="14.00">AppModule</text>
</g>
<!-- AppComponent&#45;&gt;AppModule -->
<g id="edge1" class="edge">
<title>AppComponent&#45;&gt;AppModule</title>
<path fill="none" stroke="black" d="M1455,-84.91C1455,-104.14 1455,-131.8 1455,-131.8 1455,-131.8 1030.82,-131.8 1030.82,-131.8"/>
<polygon fill="black" stroke="black" points="1030.82,-128.3 1020.82,-131.8 1030.82,-135.3 1030.82,-128.3"/>
</g>
<!-- FooterComponent -->
<g id="node2" class="node">
<title>FooterComponent</title>
<polygon fill="#ffffb3" stroke="black" points="1383.88,-84.8 1266.12,-84.8 1266.12,-48.8 1383.88,-48.8 1383.88,-84.8"/>
<text text-anchor="middle" x="1325" y="-62.6" font-family="Times,serif" font-size="14.00">FooterComponent</text>
</g>
<!-- FooterComponent&#45;&gt;AppModule -->
<g id="edge2" class="edge">
<title>FooterComponent&#45;&gt;AppModule</title>
<path fill="none" stroke="black" d="M1325,-84.82C1325,-102.17 1325,-125.8 1325,-125.8 1325,-125.8 1030.74,-125.8 1030.74,-125.8"/>
<polygon fill="black" stroke="black" points="1030.74,-122.3 1020.74,-125.8 1030.74,-129.3 1030.74,-122.3"/>
</g>
<!-- InicioComponent -->
<g id="node3" class="node">
<title>InicioComponent</title>
<polygon fill="#ffffb3" stroke="black" points="1247.99,-84.8 1134.01,-84.8 1134.01,-48.8 1247.99,-48.8 1247.99,-84.8"/>
<text text-anchor="middle" x="1191" y="-62.6" font-family="Times,serif" font-size="14.00">InicioComponent</text>
</g>
<!-- InicioComponent&#45;&gt;AppModule -->
<g id="edge3" class="edge">
<title>InicioComponent&#45;&gt;AppModule</title>
<path fill="none" stroke="black" d="M1191,-85.04C1191,-100.37 1191,-119.8 1191,-119.8 1191,-119.8 1030.88,-119.8 1030.88,-119.8"/>
<polygon fill="black" stroke="black" points="1030.88,-116.3 1020.88,-119.8 1030.88,-123.3 1030.88,-116.3"/>
</g>
<!-- LoginComponent -->
<g id="node4" class="node">
<title>LoginComponent</title>
<polygon fill="#ffffb3" stroke="black" points="1116.27,-84.8 1001.73,-84.8 1001.73,-48.8 1116.27,-48.8 1116.27,-84.8"/>
<text text-anchor="middle" x="1059" y="-62.6" font-family="Times,serif" font-size="14.00">LoginComponent</text>
</g>
<!-- LoginComponent&#45;&gt;AppModule -->
<g id="edge4" class="edge">
<title>LoginComponent&#45;&gt;AppModule</title>
<path fill="none" stroke="black" d="M1011.22,-84.91C1011.22,-84.91 1011.22,-103.79 1011.22,-103.79"/>
<polygon fill="black" stroke="black" points="1007.72,-103.79 1011.22,-113.79 1014.72,-103.79 1007.72,-103.79"/>
</g>
<!-- MostrarRecetasComponent -->
<g id="node5" class="node">
<title>MostrarRecetasComponent</title>
<polygon fill="#ffffb3" stroke="black" points="983.69,-84.8 814.31,-84.8 814.31,-48.8 983.69,-48.8 983.69,-84.8"/>
<text text-anchor="middle" x="899" y="-62.6" font-family="Times,serif" font-size="14.00">MostrarRecetasComponent</text>
</g>
<!-- MostrarRecetasComponent&#45;&gt;AppModule -->
<g id="edge5" class="edge">
<title>MostrarRecetasComponent&#45;&gt;AppModule</title>
<path fill="none" stroke="black" d="M960.38,-84.91C960.38,-84.91 960.38,-103.79 960.38,-103.79"/>
<polygon fill="black" stroke="black" points="956.88,-103.79 960.38,-113.79 963.88,-103.79 956.88,-103.79"/>
</g>
<!-- MostrarUnaRecetaComponent -->
<g id="node6" class="node">
<title>MostrarUnaRecetaComponent</title>
<polygon fill="#ffffb3" stroke="black" points="796.56,-84.8 609.44,-84.8 609.44,-48.8 796.56,-48.8 796.56,-84.8"/>
<text text-anchor="middle" x="703" y="-62.6" font-family="Times,serif" font-size="14.00">MostrarUnaRecetaComponent</text>
</g>
<!-- MostrarUnaRecetaComponent&#45;&gt;AppModule -->
<g id="edge6" class="edge">
<title>MostrarUnaRecetaComponent&#45;&gt;AppModule</title>
<path fill="none" stroke="black" d="M703,-85.04C703,-100.37 703,-119.8 703,-119.8 703,-119.8 927.08,-119.8 927.08,-119.8"/>
<polygon fill="black" stroke="black" points="927.08,-123.3 937.08,-119.8 927.08,-116.3 927.08,-123.3"/>
</g>
<!-- NavbarComponent -->
<g id="node7" class="node">
<title>NavbarComponent</title>
<polygon fill="#ffffb3" stroke="black" points="591.03,-84.8 468.97,-84.8 468.97,-48.8 591.03,-48.8 591.03,-84.8"/>
<text text-anchor="middle" x="530" y="-62.6" font-family="Times,serif" font-size="14.00">NavbarComponent</text>
</g>
<!-- NavbarComponent&#45;&gt;AppModule -->
<g id="edge7" class="edge">
<title>NavbarComponent&#45;&gt;AppModule</title>
<path fill="none" stroke="black" d="M530,-84.82C530,-102.17 530,-125.8 530,-125.8 530,-125.8 927.16,-125.8 927.16,-125.8"/>
<polygon fill="black" stroke="black" points="927.16,-129.3 937.16,-125.8 927.16,-122.3 927.16,-129.3"/>
</g>
<!-- PerfilComponent -->
<g id="node8" class="node">
<title>PerfilComponent</title>
<polygon fill="#ffffb3" stroke="black" points="451.44,-84.8 338.56,-84.8 338.56,-48.8 451.44,-48.8 451.44,-84.8"/>
<text text-anchor="middle" x="395" y="-62.6" font-family="Times,serif" font-size="14.00">PerfilComponent</text>
</g>
<!-- PerfilComponent&#45;&gt;AppModule -->
<g id="edge8" class="edge">
<title>PerfilComponent&#45;&gt;AppModule</title>
<path fill="none" stroke="black" d="M395,-84.91C395,-104.14 395,-131.8 395,-131.8 395,-131.8 927,-131.8 927,-131.8"/>
<polygon fill="black" stroke="black" points="927,-135.3 937,-131.8 927,-128.3 927,-135.3"/>
</g>
<!-- RegistroComponent -->
<g id="node9" class="node">
<title>RegistroComponent</title>
<polygon fill="#ffffb3" stroke="black" points="320.27,-84.8 191.73,-84.8 191.73,-48.8 320.27,-48.8 320.27,-84.8"/>
<text text-anchor="middle" x="256" y="-62.6" font-family="Times,serif" font-size="14.00">RegistroComponent</text>
</g>
<!-- RegistroComponent&#45;&gt;AppModule -->
<g id="edge9" class="edge">
<title>RegistroComponent&#45;&gt;AppModule</title>
<path fill="none" stroke="black" d="M256,-85.08C256,-106.12 256,-137.8 256,-137.8 256,-137.8 927.27,-137.8 927.27,-137.8"/>
<polygon fill="black" stroke="black" points="927.27,-141.3 937.27,-137.8 927.27,-134.3 927.27,-141.3"/>
</g>
<!-- SubirRecetaComponent -->
<g id="node10" class="node">
<title>SubirRecetaComponent</title>
<polygon fill="#ffffb3" stroke="black" points="173.75,-84.8 24.25,-84.8 24.25,-48.8 173.75,-48.8 173.75,-84.8"/>
<text text-anchor="middle" x="99" y="-62.6" font-family="Times,serif" font-size="14.00">SubirRecetaComponent</text>
</g>
<!-- SubirRecetaComponent&#45;&gt;AppModule -->
<g id="edge10" class="edge">
<title>SubirRecetaComponent&#45;&gt;AppModule</title>
<path fill="none" stroke="black" d="M99,-85.05C99,-107.82 99,-143.8 99,-143.8 99,-143.8 927.15,-143.8 927.15,-143.8"/>
<polygon fill="black" stroke="black" points="927.15,-147.3 937.15,-143.8 927.15,-140.3 927.15,-147.3"/>
</g>
<!-- AppComponent  -->
<g id="node13" class="node">
<title>AppComponent </title>
<polygon fill="#80b1d3" stroke="black" points="1033.44,-214.8 924.56,-214.8 924.56,-178.8 1033.44,-178.8 1033.44,-214.8"/>
<text text-anchor="middle" x="979" y="-192.6" font-family="Times,serif" font-size="14.00">AppComponent </text>
</g>
<!-- AppModule&#45;&gt;AppComponent  -->
<g id="edge12" class="edge">
<title>AppModule&#45;&gt;AppComponent </title>
<path fill="none" stroke="black" stroke-dasharray="1,5" d="M979,-149.91C979,-149.91 979,-168.79 979,-168.79"/>
<polygon fill="black" stroke="black" points="975.5,-168.79 979,-178.79 982.5,-168.79 975.5,-168.79"/>
</g>
<!-- AppRoutingModule -->
<g id="node12" class="node">
<title>AppRoutingModule</title>
<polygon fill="#8dd3c7" stroke="black" points="1818.28,-84.8 1815.28,-88.8 1794.28,-88.8 1791.28,-84.8 1689.72,-84.8 1689.72,-48.8 1818.28,-48.8 1818.28,-84.8"/>
<text text-anchor="middle" x="1754" y="-62.6" font-family="Times,serif" font-size="14.00">AppRoutingModule</text>
</g>
<!-- AppRoutingModule&#45;&gt;AppModule -->
<g id="edge11" class="edge">
<title>AppRoutingModule&#45;&gt;AppModule</title>
<path fill="none" stroke="black" d="M1754,-85.05C1754,-107.82 1754,-143.8 1754,-143.8 1754,-143.8 1030.67,-143.8 1030.67,-143.8"/>
<polygon fill="black" stroke="black" points="1030.67,-140.3 1020.67,-143.8 1030.67,-147.3 1030.67,-140.3"/>
</g>
<!-- recetasService -->
<g id="node14" class="node">
<title>recetasService</title>
<ellipse fill="#fdb462" stroke="black" cx="1599" cy="-66.8" rx="66.59" ry="18"/>
<text text-anchor="middle" x="1599" y="-62.6" font-family="Times,serif" font-size="14.00">recetasService</text>
</g>
<!-- recetasService&#45;&gt;AppModule -->
<g id="edge13" class="edge">
<title>recetasService&#45;&gt;AppModule</title>
<path fill="none" stroke="black" d="M1599,-85.08C1599,-106.12 1599,-137.8 1599,-137.8 1599,-137.8 1031.13,-137.8 1031.13,-137.8"/>
<polygon fill="black" stroke="black" points="1031.13,-134.3 1021.13,-137.8 1031.13,-141.3 1031.13,-134.3"/>
</g>
</g>
</svg>
