<?xml version="1.0" encoding="UTF-8" standalone="no"?>
<!DOCTYPE svg PUBLIC "-//W3C//DTD SVG 1.1//EN"
 "http://www.w3.org/Graphics/SVG/1.1/DTD/svg11.dtd">
<!-- Generated by graphviz version 5.0.0 (20220707.1540)
 -->
<!-- Title: dependencies Pages: 1 -->
<svg width="1832pt" height="247pt"
 viewBox="0.00 0.00 1832.00 246.80" xmlns="http://www.w3.org/2000/svg" xmlns:xlink="http://www.w3.org/1999/xlink">
<g id="graph0" class="graph" transform="scale(1 1) rotate(0) translate(4 242.8)">
<title>dependencies</title>
<polygon fill="white" stroke="transparent" points="-4,4 -4,-242.8 1828,-242.8 1828,4 -4,4"/>
<text text-anchor="middle" x="912" y="-8.2" font-family="sans-serif" font-size="14.00">dependencies</text>
<g id="clust1" class="cluster">
<title>cluster_AppModule</title>
<polygon fill="none" stroke="black" stroke-dasharray="1,5" points="8,-32.8 8,-230.8 1816,-230.8 1816,-32.8 8,-32.8"/>
</g>
<g id="clust2" class="cluster">
<title>cluster_AppModule_declarations</title>
<polygon fill="none" stroke="black" points="308,-40.8 308,-92.8 1808,-92.8 1808,-40.8 308,-40.8"/>
</g>
<g id="clust13" class="cluster">
<title>cluster_AppModule_imports</title>
<polygon fill="none" stroke="black" points="156,-40.8 156,-92.8 300,-92.8 300,-40.8 156,-40.8"/>
</g>
<g id="clust15" class="cluster">
<title>cluster_AppModule_bootstrap</title>
<polygon fill="none" stroke="black" points="846,-170.8 846,-222.8 970,-222.8 970,-170.8 846,-170.8"/>
</g>
<g id="clust16" class="cluster">
<title>cluster_AppModule_providers</title>
<polygon fill="none" stroke="black" points="16,-40.8 16,-92.8 148,-92.8 148,-40.8 16,-40.8"/>
</g>
<!-- AppComponent -->
<g id="node1" class="node">
<title>AppComponent</title>
<polygon fill="#ffffb3" stroke="black" points="1799.94,-84.8 1694.06,-84.8 1694.06,-48.8 1799.94,-48.8 1799.94,-84.8"/>
<text text-anchor="middle" x="1747" y="-62.6" font-family="Times,serif" font-size="14.00">AppComponent</text>
</g>
<!-- AppModule -->
<g id="node11" class="node">
<title>AppModule</title>
<polygon fill="#8dd3c7" stroke="black" points="949.66,-149.8 946.66,-153.8 925.66,-153.8 922.66,-149.8 866.34,-149.8 866.34,-113.8 949.66,-113.8 949.66,-149.8"/>
<text text-anchor="middle" x="908" y="-127.6" font-family="Times,serif" font-size="14.00">AppModule</text>
</g>
<!-- AppComponent&#45;&gt;AppModule -->
<g id="edge1" class="edge">
<title>AppComponent&#45;&gt;AppModule</title>
<path fill="none" stroke="black" d="M1747,-85.05C1747,-107.82 1747,-143.8 1747,-143.8 1747,-143.8 959.89,-143.8 959.89,-143.8"/>
<polygon fill="black" stroke="black" points="959.89,-140.3 949.89,-143.8 959.89,-147.3 959.89,-140.3"/>
</g>
<!-- FooterComponent -->
<g id="node2" class="node">
<title>FooterComponent</title>
<polygon fill="#ffffb3" stroke="black" points="1675.88,-84.8 1558.12,-84.8 1558.12,-48.8 1675.88,-48.8 1675.88,-84.8"/>
<text text-anchor="middle" x="1617" y="-62.6" font-family="Times,serif" font-size="14.00">FooterComponent</text>
</g>
<!-- FooterComponent&#45;&gt;AppModule -->
<g id="edge2" class="edge">
<title>FooterComponent&#45;&gt;AppModule</title>
<path fill="none" stroke="black" d="M1617,-85.08C1617,-106.12 1617,-137.8 1617,-137.8 1617,-137.8 959.7,-137.8 959.7,-137.8"/>
<polygon fill="black" stroke="black" points="959.7,-134.3 949.7,-137.8 959.7,-141.3 959.7,-134.3"/>
</g>
<!-- InicioComponent -->
<g id="node3" class="node">
<title>InicioComponent</title>
<polygon fill="#ffffb3" stroke="black" points="1539.99,-84.8 1426.01,-84.8 1426.01,-48.8 1539.99,-48.8 1539.99,-84.8"/>
<text text-anchor="middle" x="1483" y="-62.6" font-family="Times,serif" font-size="14.00">InicioComponent</text>
</g>
<!-- InicioComponent&#45;&gt;AppModule -->
<g id="edge3" class="edge">
<title>InicioComponent&#45;&gt;AppModule</title>
<path fill="none" stroke="black" d="M1483,-84.91C1483,-104.14 1483,-131.8 1483,-131.8 1483,-131.8 959.82,-131.8 959.82,-131.8"/>
<polygon fill="black" stroke="black" points="959.82,-128.3 949.82,-131.8 959.82,-135.3 959.82,-128.3"/>
</g>
<!-- LoginComponent -->
<g id="node4" class="node">
<title>LoginComponent</title>
<polygon fill="#ffffb3" stroke="black" points="1408.27,-84.8 1293.73,-84.8 1293.73,-48.8 1408.27,-48.8 1408.27,-84.8"/>
<text text-anchor="middle" x="1351" y="-62.6" font-family="Times,serif" font-size="14.00">LoginComponent</text>
</g>
<!-- LoginComponent&#45;&gt;AppModule -->
<g id="edge4" class="edge">
<title>LoginComponent&#45;&gt;AppModule</title>
<path fill="none" stroke="black" d="M1351,-84.82C1351,-102.17 1351,-125.8 1351,-125.8 1351,-125.8 959.68,-125.8 959.68,-125.8"/>
<polygon fill="black" stroke="black" points="959.68,-122.3 949.68,-125.8 959.68,-129.3 959.68,-122.3"/>
</g>
<!-- MostrarRecetasComponent -->
<g id="node5" class="node">
<title>MostrarRecetasComponent</title>
<polygon fill="#ffffb3" stroke="black" points="1275.69,-84.8 1106.31,-84.8 1106.31,-48.8 1275.69,-48.8 1275.69,-84.8"/>
<text text-anchor="middle" x="1191" y="-62.6" font-family="Times,serif" font-size="14.00">MostrarRecetasComponent</text>
</g>
<!-- MostrarRecetasComponent&#45;&gt;AppModule -->
<g id="edge5" class="edge">
<title>MostrarRecetasComponent&#45;&gt;AppModule</title>
<path fill="none" stroke="black" d="M1191,-85.04C1191,-100.37 1191,-119.8 1191,-119.8 1191,-119.8 959.76,-119.8 959.76,-119.8"/>
<polygon fill="black" stroke="black" points="959.76,-116.3 949.76,-119.8 959.76,-123.3 959.76,-116.3"/>
</g>
<!-- MostrarUnaRecetaComponent -->
<g id="node6" class="node">
<title>MostrarUnaRecetaComponent</title>
<polygon fill="#ffffb3" stroke="black" points="1088.56,-84.8 901.44,-84.8 901.44,-48.8 1088.56,-48.8 1088.56,-84.8"/>
<text text-anchor="middle" x="995" y="-62.6" font-family="Times,serif" font-size="14.00">MostrarUnaRecetaComponent</text>
</g>
<!-- MostrarUnaRecetaComponent&#45;&gt;AppModule -->
<g id="edge6" class="edge">
<title>MostrarUnaRecetaComponent&#45;&gt;AppModule</title>
<path fill="none" stroke="black" d="M925.65,-84.91C925.65,-84.91 925.65,-103.79 925.65,-103.79"/>
<polygon fill="black" stroke="black" points="922.15,-103.79 925.65,-113.79 929.15,-103.79 922.15,-103.79"/>
</g>
<!-- NavbarComponent -->
<g id="node7" class="node">
<title>NavbarComponent</title>
<polygon fill="#ffffb3" stroke="black" points="883.03,-84.8 760.97,-84.8 760.97,-48.8 883.03,-48.8 883.03,-84.8"/>
<text text-anchor="middle" x="822" y="-62.6" font-family="Times,serif" font-size="14.00">NavbarComponent</text>
</g>
<!-- NavbarComponent&#45;&gt;AppModule -->
<g id="edge7" class="edge">
<title>NavbarComponent&#45;&gt;AppModule</title>
<path fill="none" stroke="black" d="M874.72,-84.91C874.72,-84.91 874.72,-103.79 874.72,-103.79"/>
<polygon fill="black" stroke="black" points="871.22,-103.79 874.72,-113.79 878.22,-103.79 871.22,-103.79"/>
</g>
<!-- PerfilComponent -->
<g id="node8" class="node">
<title>PerfilComponent</title>
<polygon fill="#ffffb3" stroke="black" points="743.44,-84.8 630.56,-84.8 630.56,-48.8 743.44,-48.8 743.44,-84.8"/>
<text text-anchor="middle" x="687" y="-62.6" font-family="Times,serif" font-size="14.00">PerfilComponent</text>
</g>
<!-- PerfilComponent&#45;&gt;AppModule -->
<g id="edge8" class="edge">
<title>PerfilComponent&#45;&gt;AppModule</title>
<path fill="none" stroke="black" d="M687,-85.04C687,-100.37 687,-119.8 687,-119.8 687,-119.8 856.17,-119.8 856.17,-119.8"/>
<polygon fill="black" stroke="black" points="856.17,-123.3 866.17,-119.8 856.17,-116.3 856.17,-123.3"/>
</g>
<!-- RegistroComponent -->
<g id="node9" class="node">
<title>RegistroComponent</title>
<polygon fill="#ffffb3" stroke="black" points="612.27,-84.8 483.73,-84.8 483.73,-48.8 612.27,-48.8 612.27,-84.8"/>
<text text-anchor="middle" x="548" y="-62.6" font-family="Times,serif" font-size="14.00">RegistroComponent</text>
</g>
<!-- RegistroComponent&#45;&gt;AppModule -->
<g id="edge9" class="edge">
<title>RegistroComponent&#45;&gt;AppModule</title>
<path fill="none" stroke="black" d="M548,-84.82C548,-102.17 548,-125.8 548,-125.8 548,-125.8 856,-125.8 856,-125.8"/>
<polygon fill="black" stroke="black" points="856,-129.3 866,-125.8 856,-122.3 856,-129.3"/>
</g>
<!-- SubirRecetaComponent -->
<g id="node10" class="node">
<title>SubirRecetaComponent</title>
<polygon fill="#ffffb3" stroke="black" points="465.75,-84.8 316.25,-84.8 316.25,-48.8 465.75,-48.8 465.75,-84.8"/>
<text text-anchor="middle" x="391" y="-62.6" font-family="Times,serif" font-size="14.00">SubirRecetaComponent</text>
</g>
<!-- SubirRecetaComponent&#45;&gt;AppModule -->
<g id="edge10" class="edge">
<title>SubirRecetaComponent&#45;&gt;AppModule</title>
<path fill="none" stroke="black" d="M391,-84.91C391,-104.14 391,-131.8 391,-131.8 391,-131.8 856.13,-131.8 856.13,-131.8"/>
<polygon fill="black" stroke="black" points="856.13,-135.3 866.13,-131.8 856.13,-128.3 856.13,-135.3"/>
</g>
<!-- AppComponent  -->
<g id="node13" class="node">
<title>AppComponent </title>
<polygon fill="#80b1d3" stroke="black" points="962.44,-214.8 853.56,-214.8 853.56,-178.8 962.44,-178.8 962.44,-214.8"/>
<text text-anchor="middle" x="908" y="-192.6" font-family="Times,serif" font-size="14.00">AppComponent </text>
</g>
<!-- AppModule&#45;&gt;AppComponent  -->
<g id="edge12" class="edge">
<title>AppModule&#45;&gt;AppComponent </title>
<path fill="none" stroke="black" stroke-dasharray="1,5" d="M908,-149.91C908,-149.91 908,-168.79 908,-168.79"/>
<polygon fill="black" stroke="black" points="904.5,-168.79 908,-178.79 911.5,-168.79 904.5,-168.79"/>
</g>
<!-- AppRoutingModule -->
<g id="node12" class="node">
<title>AppRoutingModule</title>
<polygon fill="#8dd3c7" stroke="black" points="292.28,-84.8 289.28,-88.8 268.28,-88.8 265.28,-84.8 163.72,-84.8 163.72,-48.8 292.28,-48.8 292.28,-84.8"/>
<text text-anchor="middle" x="228" y="-62.6" font-family="Times,serif" font-size="14.00">AppRoutingModule</text>
</g>
<!-- AppRoutingModule&#45;&gt;AppModule -->
<g id="edge11" class="edge">
<title>AppRoutingModule&#45;&gt;AppModule</title>
<path fill="none" stroke="black" d="M228,-85.08C228,-106.12 228,-137.8 228,-137.8 228,-137.8 856.23,-137.8 856.23,-137.8"/>
<polygon fill="black" stroke="black" points="856.23,-141.3 866.23,-137.8 856.23,-134.3 856.23,-141.3"/>
</g>
<!-- DataService -->
<g id="node14" class="node">
<title>DataService</title>
<ellipse fill="#fdb462" stroke="black" cx="82" cy="-66.8" rx="58.45" ry="18"/>
<text text-anchor="middle" x="82" y="-62.6" font-family="Times,serif" font-size="14.00">DataService</text>
</g>
<!-- DataService&#45;&gt;AppModule -->
<g id="edge13" class="edge">
<title>DataService&#45;&gt;AppModule</title>
<path fill="none" stroke="black" d="M82,-85.05C82,-107.82 82,-143.8 82,-143.8 82,-143.8 856.19,-143.8 856.19,-143.8"/>
<polygon fill="black" stroke="black" points="856.19,-147.3 866.19,-143.8 856.19,-140.3 856.19,-147.3"/>
</g>
</g>
</svg>
