<?xml version="1.0" encoding="UTF-8" standalone="no"?>
<!DOCTYPE svg PUBLIC "-//W3C//DTD SVG 1.1//EN"
 "http://www.w3.org/Graphics/SVG/1.1/DTD/svg11.dtd">
<!-- Generated by graphviz version 5.0.0 (20220707.1540)
 -->
<!-- Title: dependencies Pages: 1 -->
<svg width="1692pt" height="247pt"
 viewBox="0.00 0.00 1692.00 246.80" xmlns="http://www.w3.org/2000/svg" xmlns:xlink="http://www.w3.org/1999/xlink">
<g id="graph0" class="graph" transform="scale(1 1) rotate(0) translate(4 242.8)">
<title>dependencies</title>
<polygon fill="white" stroke="transparent" points="-4,4 -4,-242.8 1688,-242.8 1688,4 -4,4"/>
<text text-anchor="middle" x="842" y="-8.2" font-family="sans-serif" font-size="14.00">dependencies</text>
<g id="clust1" class="cluster">
<title>cluster_AppModule</title>
<polygon fill="none" stroke="black" stroke-dasharray="1,5" points="8,-32.8 8,-230.8 1676,-230.8 1676,-32.8 8,-32.8"/>
</g>
<g id="clust2" class="cluster">
<title>cluster_AppModule_declarations</title>
<polygon fill="none" stroke="black" points="168,-40.8 168,-92.8 1668,-92.8 1668,-40.8 168,-40.8"/>
</g>
<g id="clust15" class="cluster">
<title>cluster_AppModule_bootstrap</title>
<polygon fill="none" stroke="black" points="793,-170.8 793,-222.8 917,-222.8 917,-170.8 793,-170.8"/>
</g>
<g id="clust13" class="cluster">
<title>cluster_AppModule_imports</title>
<polygon fill="none" stroke="black" points="16,-40.8 16,-92.8 160,-92.8 160,-40.8 16,-40.8"/>
</g>
<!-- AppComponent -->
<g id="node1" class="node">
<title>AppComponent</title>
<polygon fill="#ffffb3" stroke="black" points="1659.94,-84.8 1554.06,-84.8 1554.06,-48.8 1659.94,-48.8 1659.94,-84.8"/>
<text text-anchor="middle" x="1607" y="-62.6" font-family="Times,serif" font-size="14.00">AppComponent</text>
</g>
<!-- AppModule -->
<g id="node11" class="node">
<title>AppModule</title>
<polygon fill="#8dd3c7" stroke="black" points="896.66,-149.8 893.66,-153.8 872.66,-153.8 869.66,-149.8 813.34,-149.8 813.34,-113.8 896.66,-113.8 896.66,-149.8"/>
<text text-anchor="middle" x="855" y="-127.6" font-family="Times,serif" font-size="14.00">AppModule</text>
</g>
<!-- AppComponent&#45;&gt;AppModule -->
<g id="edge1" class="edge">
<title>AppComponent&#45;&gt;AppModule</title>
<path fill="none" stroke="black" d="M1607,-85.05C1607,-107.82 1607,-143.8 1607,-143.8 1607,-143.8 906.77,-143.8 906.77,-143.8"/>
<polygon fill="black" stroke="black" points="906.77,-140.3 896.77,-143.8 906.77,-147.3 906.77,-140.3"/>
</g>
<!-- FooterComponent -->
<g id="node2" class="node">
<title>FooterComponent</title>
<polygon fill="#ffffb3" stroke="black" points="1535.88,-84.8 1418.12,-84.8 1418.12,-48.8 1535.88,-48.8 1535.88,-84.8"/>
<text text-anchor="middle" x="1477" y="-62.6" font-family="Times,serif" font-size="14.00">FooterComponent</text>
</g>
<!-- FooterComponent&#45;&gt;AppModule -->
<g id="edge2" class="edge">
<title>FooterComponent&#45;&gt;AppModule</title>
<path fill="none" stroke="black" d="M1477,-85.08C1477,-106.12 1477,-137.8 1477,-137.8 1477,-137.8 906.78,-137.8 906.78,-137.8"/>
<polygon fill="black" stroke="black" points="906.78,-134.3 896.78,-137.8 906.78,-141.3 906.78,-134.3"/>
</g>
<!-- InicioComponent -->
<g id="node3" class="node">
<title>InicioComponent</title>
<polygon fill="#ffffb3" stroke="black" points="1399.99,-84.8 1286.01,-84.8 1286.01,-48.8 1399.99,-48.8 1399.99,-84.8"/>
<text text-anchor="middle" x="1343" y="-62.6" font-family="Times,serif" font-size="14.00">InicioComponent</text>
</g>
<!-- InicioComponent&#45;&gt;AppModule -->
<g id="edge3" class="edge">
<title>InicioComponent&#45;&gt;AppModule</title>
<path fill="none" stroke="black" d="M1343,-84.91C1343,-104.14 1343,-131.8 1343,-131.8 1343,-131.8 907.03,-131.8 907.03,-131.8"/>
<polygon fill="black" stroke="black" points="907.03,-128.3 897.03,-131.8 907.03,-135.3 907.03,-128.3"/>
</g>
<!-- LoginComponent -->
<g id="node4" class="node">
<title>LoginComponent</title>
<polygon fill="#ffffb3" stroke="black" points="1268.27,-84.8 1153.73,-84.8 1153.73,-48.8 1268.27,-48.8 1268.27,-84.8"/>
<text text-anchor="middle" x="1211" y="-62.6" font-family="Times,serif" font-size="14.00">LoginComponent</text>
</g>
<!-- LoginComponent&#45;&gt;AppModule -->
<g id="edge4" class="edge">
<title>LoginComponent&#45;&gt;AppModule</title>
<path fill="none" stroke="black" d="M1211,-84.82C1211,-102.17 1211,-125.8 1211,-125.8 1211,-125.8 906.88,-125.8 906.88,-125.8"/>
<polygon fill="black" stroke="black" points="906.88,-122.3 896.88,-125.8 906.88,-129.3 906.88,-122.3"/>
</g>
<!-- MostrarRecetasComponent -->
<g id="node5" class="node">
<title>MostrarRecetasComponent</title>
<polygon fill="#ffffb3" stroke="black" points="1135.69,-84.8 966.31,-84.8 966.31,-48.8 1135.69,-48.8 1135.69,-84.8"/>
<text text-anchor="middle" x="1051" y="-62.6" font-family="Times,serif" font-size="14.00">MostrarRecetasComponent</text>
</g>
<!-- MostrarRecetasComponent&#45;&gt;AppModule -->
<g id="edge5" class="edge">
<title>MostrarRecetasComponent&#45;&gt;AppModule</title>
<path fill="none" stroke="black" d="M1051,-85.04C1051,-100.37 1051,-119.8 1051,-119.8 1051,-119.8 907.05,-119.8 907.05,-119.8"/>
<polygon fill="black" stroke="black" points="907.05,-116.3 897.05,-119.8 907.05,-123.3 907.05,-116.3"/>
</g>
<!-- MostrarUnaRecetaComponent -->
<g id="node6" class="node">
<title>MostrarUnaRecetaComponent</title>
<polygon fill="#ffffb3" stroke="black" points="948.56,-84.8 761.44,-84.8 761.44,-48.8 948.56,-48.8 948.56,-84.8"/>
<text text-anchor="middle" x="855" y="-62.6" font-family="Times,serif" font-size="14.00">MostrarUnaRecetaComponent</text>
</g>
<!-- MostrarUnaRecetaComponent&#45;&gt;AppModule -->
<g id="edge6" class="edge">
<title>MostrarUnaRecetaComponent&#45;&gt;AppModule</title>
<path fill="none" stroke="black" d="M855,-84.91C855,-84.91 855,-103.79 855,-103.79"/>
<polygon fill="black" stroke="black" points="851.5,-103.79 855,-113.79 858.5,-103.79 851.5,-103.79"/>
</g>
<!-- NavbarComponent -->
<g id="node7" class="node">
<title>NavbarComponent</title>
<polygon fill="#ffffb3" stroke="black" points="743.03,-84.8 620.97,-84.8 620.97,-48.8 743.03,-48.8 743.03,-84.8"/>
<text text-anchor="middle" x="682" y="-62.6" font-family="Times,serif" font-size="14.00">NavbarComponent</text>
</g>
<!-- NavbarComponent&#45;&gt;AppModule -->
<g id="edge7" class="edge">
<title>NavbarComponent&#45;&gt;AppModule</title>
<path fill="none" stroke="black" d="M682,-85.04C682,-100.37 682,-119.8 682,-119.8 682,-119.8 803.12,-119.8 803.12,-119.8"/>
<polygon fill="black" stroke="black" points="803.12,-123.3 813.12,-119.8 803.12,-116.3 803.12,-123.3"/>
</g>
<!-- PerfilComponent -->
<g id="node8" class="node">
<title>PerfilComponent</title>
<polygon fill="#ffffb3" stroke="black" points="603.44,-84.8 490.56,-84.8 490.56,-48.8 603.44,-48.8 603.44,-84.8"/>
<text text-anchor="middle" x="547" y="-62.6" font-family="Times,serif" font-size="14.00">PerfilComponent</text>
</g>
<!-- PerfilComponent&#45;&gt;AppModule -->
<g id="edge8" class="edge">
<title>PerfilComponent&#45;&gt;AppModule</title>
<path fill="none" stroke="black" d="M547,-84.82C547,-102.17 547,-125.8 547,-125.8 547,-125.8 803.14,-125.8 803.14,-125.8"/>
<polygon fill="black" stroke="black" points="803.14,-129.3 813.14,-125.8 803.14,-122.3 803.14,-129.3"/>
</g>
<!-- RegistroComponent -->
<g id="node9" class="node">
<title>RegistroComponent</title>
<polygon fill="#ffffb3" stroke="black" points="472.27,-84.8 343.73,-84.8 343.73,-48.8 472.27,-48.8 472.27,-84.8"/>
<text text-anchor="middle" x="408" y="-62.6" font-family="Times,serif" font-size="14.00">RegistroComponent</text>
</g>
<!-- RegistroComponent&#45;&gt;AppModule -->
<g id="edge9" class="edge">
<title>RegistroComponent&#45;&gt;AppModule</title>
<path fill="none" stroke="black" d="M408,-84.91C408,-104.14 408,-131.8 408,-131.8 408,-131.8 802.95,-131.8 802.95,-131.8"/>
<polygon fill="black" stroke="black" points="802.95,-135.3 812.95,-131.8 802.95,-128.3 802.95,-135.3"/>
</g>
<!-- SubirRecetaComponent -->
<g id="node10" class="node">
<title>SubirRecetaComponent</title>
<polygon fill="#ffffb3" stroke="black" points="325.75,-84.8 176.25,-84.8 176.25,-48.8 325.75,-48.8 325.75,-84.8"/>
<text text-anchor="middle" x="251" y="-62.6" font-family="Times,serif" font-size="14.00">SubirRecetaComponent</text>
</g>
<!-- SubirRecetaComponent&#45;&gt;AppModule -->
<g id="edge10" class="edge">
<title>SubirRecetaComponent&#45;&gt;AppModule</title>
<path fill="none" stroke="black" d="M251,-85.08C251,-106.12 251,-137.8 251,-137.8 251,-137.8 803.01,-137.8 803.01,-137.8"/>
<polygon fill="black" stroke="black" points="803.01,-141.3 813.01,-137.8 803.01,-134.3 803.01,-141.3"/>
</g>
<!-- AppComponent  -->
<g id="node13" class="node">
<title>AppComponent </title>
<polygon fill="#80b1d3" stroke="black" points="909.44,-214.8 800.56,-214.8 800.56,-178.8 909.44,-178.8 909.44,-214.8"/>
<text text-anchor="middle" x="855" y="-192.6" font-family="Times,serif" font-size="14.00">AppComponent </text>
</g>
<!-- AppModule&#45;&gt;AppComponent  -->
<g id="edge12" class="edge">
<title>AppModule&#45;&gt;AppComponent </title>
<path fill="none" stroke="black" stroke-dasharray="1,5" d="M855,-149.91C855,-149.91 855,-168.79 855,-168.79"/>
<polygon fill="black" stroke="black" points="851.5,-168.79 855,-178.79 858.5,-168.79 851.5,-168.79"/>
</g>
<!-- AppRoutingModule -->
<g id="node12" class="node">
<title>AppRoutingModule</title>
<polygon fill="#8dd3c7" stroke="black" points="152.28,-84.8 149.28,-88.8 128.28,-88.8 125.28,-84.8 23.72,-84.8 23.72,-48.8 152.28,-48.8 152.28,-84.8"/>
<text text-anchor="middle" x="88" y="-62.6" font-family="Times,serif" font-size="14.00">AppRoutingModule</text>
</g>
<!-- AppRoutingModule&#45;&gt;AppModule -->
<g id="edge11" class="edge">
<title>AppRoutingModule&#45;&gt;AppModule</title>
<path fill="none" stroke="black" d="M88,-85.05C88,-107.82 88,-143.8 88,-143.8 88,-143.8 803.22,-143.8 803.22,-143.8"/>
<polygon fill="black" stroke="black" points="803.22,-147.3 813.22,-143.8 803.22,-140.3 803.22,-147.3"/>
</g>
</g>
</svg>
